# xmcd CD database file
#
# Track frame offsets:
#	150
#	17600
#	30220
#	46495
#	62500
#	77565
#	90715
#	110285
#	123935
#	139785
#	157142
#	172222
#	187352
#	200652
#	215340
#	229977
#
# Disc length: 3232 seconds
#
# Revision: 0
# Processed by: cddbd v1.5.2PL0 Copyright (c) Steve Scherf et al.
# Submitted via: CDex 1.70beta2
#
DISCID=de0c9e10
DTITLE=Variopus Artists - Best Mof 90's Country Cd4 - cd4
DYEAR=1999
DGENRE=Country
TTITLE0=Some Kind Of Trouble
TTITLE1=Love Light
TTITLE2=If You'll Let This Fool Back In
TTITLE3=Lonely Out Tonite
TTITLE4=Fighting For You
TTITLE5=Outbound Plane
TTITLE6=Rock Of Love
TTITLE7=Feed This Fire
TTITLE8=Riding For A Fall
TTITLE9=Aces
TTITLE10=Somewhere In My Broken Heart
TTITLE11=Till I'm Holding You Again
TTITLE12=(without You) What Do I Do With Me
TTITLE13=Where Did We Go Right
TTITLE14=I'll Start With You
TTITLE15=Hopelessly Yours
EXTD=YEAR: 1999
EXTT0=
EXTT1=
EXTT2=
EXTT3=
EXTT4=
EXTT5=
EXTT6=
EXTT7=
EXTT8=
EXTT9=
EXTT10=
EXTT11=
EXTT12=
EXTT13=
EXTT14=
EXTT15=
PLAYORDER=
